<svg data-logo="logo" xmlns="http://www.w3.org/2000/svg" viewBox="0 0 207 43">
        <g style="opacity: 1;" id="logogram" transform="translate(0, 1) rotate(0)"><path d="M0 24.9721C0 22.9632 0.395671 20.9739 1.16447 19.118C1.93328 17.2619 3.06009 15.5755 4.48064 14.155C5.90118 12.7344 7.58755 11.6076 9.44355 10.8388C11.2996 10.0701 13.2889 9.67435 15.2979 9.67435V24.9721H0Z" fill="#442781"></path><path d="M0 24.9721C0 26.9811 0.395671 28.9704 1.16447 30.8264C1.93328 32.6824 3.06009 34.3688 4.48064 35.7894C5.90118 37.2099 7.58755 38.3368 9.44355 39.1056C11.2996 39.8744 13.2889 40.27 15.2979 40.27V24.9721H0Z" fill="#61459C"></path><path d="M30.5955 24.9721C30.5955 26.9811 30.2001 28.9704 29.4314 30.8264C28.6626 32.6824 27.5358 34.3688 26.115 35.7894C24.6945 37.2099 23.0081 38.3368 21.152 39.1056C19.2961 39.8744 17.3067 40.27 15.2979 40.27V24.9721H30.5955Z" fill="#A992DB"></path><path d="M40.0277 11.7562C40.0277 18.0999 34.885 23.2424 28.5414 23.2424H17.0553V11.7562C17.0553 5.41257 22.1979 0.269989 28.5414 0.269989C34.885 0.269989 40.0277 5.41257 40.0277 11.7562Z" fill="#FF7917"></path></g>
        <g style="opacity: 1;" id="logotype" transform="translate(47, 10.5)"><path fill="#b644f3" d="M27.88 22L10.38 22L10.38 17.63L23.50 17.63L23.50 13.25L14.75 13.25L14.75 8.87L10.38 8.87L10.38 4.50L14.75 4.50L14.75 0.12L32.25 0.12L32.25 4.50L19.13 4.50L19.13 8.87L27.88 8.87L27.88 13.25L32.25 13.25L32.25 17.63L27.88 17.63L27.88 22ZM55 22L41.88 22L41.88 17.63L37.50 17.63L37.50 0.12L46.25 0.12L46.25 17.63L50.63 17.63L50.63 0.12L59.38 0.12L59.38 17.63L55 17.63L55 22ZM73.38 22L64.63 22L64.63 0.12L73.38 0.12L73.38 4.50L77.75 4.50L77.75 8.87L82.13 8.87L82.13 0.12L90.88 0.12L90.88 22L82.13 22L82.13 17.63L77.75 17.63L77.75 13.25L73.38 13.25L73.38 22ZM113.63 22L100.50 22L100.50 17.63L96.13 17.63L96.13 4.50L100.50 4.50L100.50 0.12L113.63 0.12L113.63 4.50L118 4.50L118 17.63L113.63 17.63L113.63 22ZM104.88 4.67L104.88 17.45L109.25 17.45L109.25 4.67L104.88 4.67ZM132 22L123.25 22L123.25 4.50L127.63 4.50L127.63 0.12L140.75 0.12L140.75 4.50L145.13 4.50L145.13 22L136.38 22L136.38 13.25L132 13.25L132 22ZM132 4.67L132 8.87L136.38 8.87L136.38 4.67L132 4.67ZM159.13 22L150.38 22L150.38 0.12L159.13 0.12L159.13 22Z"></path></g>
        
      </svg>